<?xml version="1.0" encoding="utf-8"?>
<!-- Generator: Adobe Illustrator 20.0.0, SVG Export Plug-In . SVG Version: 6.00 Build 0)  -->
<svg version="1.1" id="OpenShare_icon" xmlns="http://www.w3.org/2000/svg" xmlns:xlink="http://www.w3.org/1999/xlink" x="0px"
	 y="0px" viewBox="0 0 126 125.8" style="enable-background:new 0 0 126 125.8;" xml:space="preserve">
<style type="text/css">
	.st0{fill:#009ADE;}
</style>
<g>
	<path class="st0" d="M63,8.9c-29.8,0-54,24.2-54,54c0,29.8,24.2,54,54,54c29.8,0,54-24.2,54-54C117,33.1,92.8,8.9,63,8.9z
		 M97.8,97.7c-8.9,8.9-21.2,14.4-34.8,14.4c-13.6,0-25.9-5.5-34.8-14.4c-8.9-8.9-14.4-21.2-14.4-34.8c0-13.6,5.5-25.9,14.4-34.8
		c8.9-8.9,21.2-14.4,34.8-14.4c13.6,0,25.9,5.5,34.8,14.4c8.9,8.9,14.4,21.2,14.4,34.8C112.2,76.5,106.7,88.8,97.8,97.7z"/>
	<g>
		<path class="st0" d="M56.7,74.2c-0.1,0-0.2,0.2-0.2,0.5v14.7c0,1.3-0.2,2.2-0.6,2.6c-0.4,0.4-1.1,0.6-2.1,0.6h-5.1
			c-1.2,0-1.9-0.3-2.1-0.8c-0.2-0.6-0.3-1.4-0.3-2.6V42c0-1,0.2-1.7,0.5-2.1c0.3-0.4,1.1-0.6,2.2-0.6h15.1c7.2,0,12.4,1.4,15.7,4.3
			c3.2,2.9,4.8,7.2,4.8,13c0,5.7-1.5,10.1-4.6,13.1c-3.1,3-8.1,4.5-14.9,4.5H56.7z M56.9,47.6c-0.3,0-0.4,0.1-0.4,0.3v17.4
			c0,0.3,0.2,0.4,0.6,0.4h8.9c2.3,0,4.3-0.7,6-2.2c1.6-1.5,2.4-3.9,2.4-7.3c0-3.1-1-5.3-3.1-6.6c-2.1-1.3-4.6-2-7.5-2H56.9z"/>
	</g>
</g>
</svg>
